<svg xmlns="http://www.w3.org/2000/svg" version="1.1" xmlns:xlink="http://www.w3.org/1999/xlink" width="200" height="200"><svg xmlns="http://www.w3.org/2000/svg" version="1.1" xmlns:xlink="http://www.w3.org/1999/xlink" viewBox="0 0 200 200"><rect width="200" height="200" fill="url('#gradient')"></rect><defs><linearGradient id="SvgjsLinearGradient1001" gradientTransform="rotate(48 0.5 0.5)"><stop offset="0%" stop-color="#0082e0"></stop><stop offset="100%" stop-color="#00156e"></stop></linearGradient></defs><g><g fill="#ffffff" transform="matrix(5.118476643855995,0,0,5.118476643855995,10.503080333077236,135.88224096607502)" stroke="#000000" stroke-width="0.2"><path d="M4.50-14.22L4.50-2.64L10.47-2.64L10.47 0L1.07 0L1.07-14.22L4.50-14.22ZM17.69 0L11.91 0L11.91-14.22L17.02-14.22Q19.77-14.22 21.20-13.21Q22.63-12.21 22.63-10.29L22.63-10.29Q22.63-9.19 22.12-8.41Q21.61-7.63 20.63-7.26L20.63-7.26Q21.74-6.96 22.33-6.16Q22.93-5.36 22.93-4.21L22.93-4.21Q22.93-2.12 21.61-1.07Q20.28-0.02 17.69 0L17.69 0ZM17.74-6.04L15.34-6.04L15.34-2.64L17.59-2.64Q18.52-2.64 19.01-3.06Q19.51-3.49 19.51-4.26L19.51-4.26Q19.51-6.04 17.74-6.04L17.74-6.04ZM15.34-11.57L15.34-8.29L17.13-8.29Q18.25-8.30 18.73-8.70Q19.21-9.10 19.21-9.88L19.21-9.88Q19.21-10.78 18.69-11.18Q18.17-11.57 17.02-11.57L17.02-11.57L15.34-11.57ZM30.48-4.46L30.48-14.22L33.90-14.22L33.90-4.46Q33.90-3.11 33.27-2.04Q32.64-0.98 31.51-0.39Q30.38 0.20 28.99 0.20L28.99 0.20Q26.67 0.20 25.38-0.98Q24.09-2.15 24.09-4.30L24.09-4.30L27.53-4.30Q27.53-3.32 27.87-2.88Q28.20-2.44 28.99-2.44L28.99-2.44Q29.71-2.44 30.09-2.97Q30.48-3.51 30.48-4.46L30.48-4.46Z"></path></g></g></svg><style>@media (prefers-color-scheme: light) { :root { filter: none; } }
@media (prefers-color-scheme: dark) { :root { filter: none; } }
</style></svg>